<?xml version="1.0" standalone="no"?>
<!DOCTYPE svg PUBLIC "-//W3C//DTD SVG 20010904//EN"
 "http://www.w3.org/TR/2001/REC-SVG-20010904/DTD/svg10.dtd">
<svg version="1.0" xmlns="http://www.w3.org/2000/svg"
 width="300.000000pt" height="307.000000pt" viewBox="0 0 300.000000 307.000000"
 preserveAspectRatio="xMidYMid meet">
<metadata>
Created by potrace 1.10, written by Peter Selinger 2001-2011
</metadata>
<g transform="translate(0.000000,307.000000) scale(0.100000,-0.100000)"
fill="#000000" stroke="none">
<path d="M1515 3000 c-11 -4 -31 -20 -44 -34 -29 -31 -59 -33 -103 -6 -58 35
-114 22 -161 -37 -21 -27 -82 -41 -108 -24 -45 27 -119 -2 -139 -55 -9 -22
-78 -74 -99 -74 -5 0 -33 -16 -62 -35 -38 -25 -65 -35 -92 -35 -50 0 -84 -24
-99 -69 -7 -22 -37 -59 -79 -99 -59 -56 -72 -63 -107 -64 -22 0 -54 -9 -71
-19 -58 -35 -72 -78 -59 -186 7 -55 -19 -109 -73 -153 -38 -30 -40 -35 -34
-69 11 -59 6 -133 -10 -151 -11 -12 -15 -37 -14 -91 2 -111 -24 -260 -52 -298
-37 -50 -31 -96 17 -140 53 -48 87 -161 77 -258 -5 -50 -4 -52 28 -72 18 -11
45 -42 59 -68 45 -81 54 -96 73 -117 25 -28 31 -60 19 -96 -17 -47 -4 -98 33
-126 25 -19 44 -24 90 -24 60 0 80 -11 175 -97 14 -13 28 -23 31 -23 3 0 14
-20 23 -44 19 -50 51 -68 112 -65 59 3 61 2 108 -41 40 -37 49 -41 93 -40 85
3 109 -8 148 -61 31 -44 39 -49 73 -49 37 0 79 21 95 47 12 19 113 8 162 -18
l42 -23 46 27 c61 36 248 75 288 60 45 -17 91 0 120 44 37 57 165 128 213 119
121 -24 196 32 196 149 1 49 2 51 90 140 49 50 103 100 119 113 17 13 34 36
37 50 17 83 56 136 105 147 62 14 93 90 63 153 -16 35 -16 42 0 142 9 57 23
114 30 125 8 12 15 30 17 41 3 25 -11 74 -21 74 -13 0 1 112 17 138 16 27 9
80 -12 88 -30 12 -51 124 -30 164 23 44 19 57 -34 109 -27 27 -54 65 -61 87
-7 21 -19 48 -26 59 -7 11 -13 46 -13 78 1 32 -5 72 -12 90 -17 41 -71 90
-117 107 -49 17 -62 28 -62 55 0 31 -29 61 -68 68 -47 9 -90 45 -111 92 -36
81 -100 111 -186 86 -25 -7 -43 -2 -100 25 -39 18 -73 33 -78 34 -4 0 -31 16
-59 36 -44 29 -58 34 -88 29 -48 -8 -147 19 -179 49 -48 44 -90 56 -136 36z
m86 -31 c11 -5 24 -21 29 -34 7 -17 19 -25 52 -29 24 -4 64 -12 91 -18 35 -7
51 -7 62 2 17 14 55 -3 55 -24 0 -8 28 -24 63 -36 34 -13 89 -37 122 -53 47
-23 63 -27 77 -18 29 18 92 13 121 -9 14 -11 31 -35 37 -54 15 -46 99 -116
139 -116 30 0 55 -26 49 -53 -5 -26 22 -57 51 -57 36 0 89 -36 119 -80 18 -27
23 -46 21 -95 -1 -51 5 -72 40 -146 23 -48 41 -92 41 -99 0 -6 5 -8 11 -5 15
10 49 -24 49 -48 0 -11 -6 -28 -14 -36 -12 -14 -12 -27 3 -94 11 -51 23 -82
34 -88 21 -12 23 -67 2 -75 -12 -5 -15 -24 -15 -84 0 -57 4 -81 15 -90 21 -17
19 -44 -5 -65 -14 -12 -20 -31 -20 -59 0 -23 -9 -77 -19 -121 l-20 -80 21 -22
c46 -49 12 -128 -54 -126 -30 0 -36 -5 -70 -62 -23 -39 -35 -70 -32 -83 8 -29
-13 -62 -40 -62 -17 0 -36 -16 -65 -54 -23 -29 -68 -79 -101 -110 -50 -48 -58
-60 -50 -76 23 -43 2 -113 -42 -144 -29 -21 -97 -20 -126 0 -21 15 -26 14 -70
-14 -26 -17 -73 -43 -104 -58 -41 -20 -58 -34 -58 -48 0 -46 -64 -74 -99 -42
-14 13 -28 11 -110 -10 -51 -13 -107 -24 -123 -24 -20 0 -37 -9 -55 -30 -30
-37 -56 -38 -87 -5 -21 23 -31 25 -105 25 -64 0 -81 -3 -81 -14 0 -20 -39 -46
-67 -46 -30 0 -63 34 -63 63 0 20 -10 26 -70 44 -39 11 -73 16 -76 12 -8 -13
-58 -11 -72 3 -7 7 -12 19 -12 27 0 15 -164 101 -192 101 -21 0 5 -18 31 -22
14 -1 26 -8 28 -15 5 -14 -31 -26 -55 -18 -22 6 -44 49 -36 69 3 8 -8 23 -28
37 -18 13 -66 50 -106 82 -55 44 -76 57 -85 48 -14 -14 -72 -14 -98 -1 -46 25
-59 101 -23 141 13 14 9 24 -30 82 -24 36 -57 92 -72 124 -23 46 -36 62 -59
69 -24 7 -31 15 -33 42 -2 22 2 34 12 38 13 5 13 10 1 42 -14 36 -37 118 -49
174 -4 17 -14 28 -28 30 -11 2 -30 15 -41 30 -25 33 -17 72 21 96 25 16 27 22
31 101 2 46 9 109 17 140 8 35 9 60 3 66 -13 13 -11 51 4 67 7 7 19 40 25 73
10 51 10 60 -3 68 -32 17 -14 70 27 78 9 2 34 39 56 83 l40 79 -20 28 c-29 39
-19 94 23 132 26 24 38 28 79 26 48 -3 50 -2 132 76 60 58 82 85 80 101 -5 33
26 57 65 51 26 -5 43 1 83 28 28 19 84 50 125 70 54 27 75 42 75 56 0 46 79
78 112 46 19 -19 135 17 143 44 6 19 52 49 75 49 6 0 22 -11 36 -25 23 -23 30
-24 79 -19 30 4 55 10 55 15 0 5 10 17 22 29 24 22 68 26 99 9z"/>
<path d="M1496 2922 c-2 -4 -1 -14 5 -22 6 -10 9 -11 9 -2 0 6 8 12 18 11 10
0 12 -3 5 -6 -20 -8 -15 -33 7 -34 56 -5 74 -3 77 7 2 6 -8 14 -22 16 -18 4
-25 1 -26 -11 0 -13 -1 -14 -6 -1 -14 38 -54 63 -67 42z"/>
<path d="M1370 2890 c0 -5 5 -10 11 -10 6 0 24 -9 40 -21 32 -23 75 -18 65 8
-3 8 -6 19 -6 24 0 5 -25 9 -55 9 -30 0 -55 -4 -55 -10z"/>
<path d="M1630 2869 c-9 -17 -7 -19 17 -18 24 0 78 16 63 18 -3 1 -20 5 -38
10 -27 8 -34 7 -42 -10z"/>
<path d="M1155 2856 l-40 -13 39 -7 c32 -6 43 -4 60 13 20 21 20 21 1 20 -11
-1 -38 -7 -60 -13z"/>
<path d="M1617 2830 c-65 -9 -121 -21 -126 -26 -5 -5 -6 -37 -3 -72 7 -94 18
-99 169 -74 65 11 143 23 175 27 34 4 58 12 62 20 6 15 -129 146 -148 144 -6
-1 -64 -9 -129 -19z m181 -47 c48 -39 51 -77 7 -81 -16 -2 -79 -12 -140 -22
-60 -11 -112 -20 -116 -20 -13 0 -30 58 -27 90 3 31 6 34 68 51 95 25 161 20
208 -18z"/>
<path d="M1850 2788 c35 -34 73 -63 83 -63 11 -1 24 -9 29 -18 7 -13 24 -17
79 -17 52 0 70 3 67 13 -3 6 -49 38 -104 70 -87 51 -103 57 -136 51 -29 -4
-39 -2 -44 10 -3 9 -13 16 -22 16 -8 0 12 -27 48 -62z"/>
<path d="M1122 2811 c2 -9 13 -16 27 -16 36 0 37 22 1 27 -24 4 -30 1 -28 -11z"/>
<path d="M1026 2813 c-12 -13 -5 -21 25 -27 17 -3 28 -10 24 -16 -10 -17 2
-11 16 8 7 9 9 14 5 10 -5 -4 -21 1 -36 12 -15 11 -30 17 -34 13z"/>
<path d="M1221 2796 c-6 -7 -9 -20 -5 -29 3 -8 1 -18 -5 -22 -15 -9 -14 -28 5
-51 15 -18 15 -17 10 12 -3 19 1 39 9 50 13 18 14 18 21 1 3 -10 2 -23 -3 -28
-7 -7 0 -20 20 -40 21 -22 32 -27 38 -18 6 10 19 9 62 -3 44 -13 55 -13 51 -3
-3 7 -1 16 5 20 7 4 11 -3 11 -17 1 -21 2 -21 11 -5 14 23 -7 50 -33 44 -10
-3 -18 0 -19 6 -1 7 -5 1 -9 -13 -8 -24 -8 -24 -9 -2 -1 17 -7 22 -30 22 -21
0 -41 13 -74 45 -36 35 -47 42 -56 31z"/>
<path d="M1106 2771 c-3 -5 6 -12 20 -15 29 -8 39 -3 29 13 -8 13 -42 14 -49
2z"/>
<path d="M2070 2751 c25 -15 49 -26 54 -23 5 3 -11 15 -35 28 -61 32 -72 30
-19 -5z"/>
<path d="M835 2709 c-38 -22 -65 -39 -60 -37 73 24 135 53 135 64 0 18 6 20
-75 -27z"/>
<path d="M1016 2733 c-17 -3 -30 -12 -33 -24 -3 -11 -15 -22 -28 -25 -20 -5
-37 -30 -71 -110 -24 -56 -11 -58 140 -28 124 25 139 30 150 53 10 21 10 31 0
51 -8 14 -14 40 -14 58 l0 32 -57 -1 c-32 -1 -71 -4 -87 -6z m106 -30 c8 -10
20 -33 27 -52 9 -29 8 -36 -7 -47 -20 -14 -116 -40 -184 -49 -43 -6 -48 -4
-48 14 0 23 38 91 51 91 5 0 18 9 29 20 17 17 66 35 106 39 6 1 18 -7 26 -16z"/>
<path d="M803 2667 c-57 -25 -73 -37 -73 -53 0 -11 -9 -29 -20 -39 -16 -14
-25 -16 -43 -8 -21 10 -30 3 -96 -68 -41 -43 -78 -76 -83 -73 -5 4 -4 -3 3
-13 11 -19 14 -19 85 11 40 17 74 36 74 42 0 16 37 47 48 40 6 -3 33 23 62 59
28 36 70 81 93 100 49 42 43 42 -50 2z m-159 -159 c-37 -44 -45 -50 -52 -44
-7 7 47 64 62 65 5 1 1 -9 -10 -21z"/>
<path d="M821 2604 c-110 -116 -118 -143 -32 -113 17 6 31 17 31 24 0 8 8 20
18 27 20 15 88 145 80 153 -3 3 -46 -38 -97 -91z"/>
<path d="M2167 2688 c4 -7 8 -20 8 -28 0 -10 12 -16 33 -18 24 -2 32 -7 28
-18 -3 -8 -3 -14 0 -14 9 0 34 28 34 38 0 12 -29 24 -40 17 -4 -2 -15 4 -25
15 -20 22 -51 28 -38 8z"/>
<path d="M1957 2666 c-3 -8 1 -36 9 -63 16 -53 22 -180 10 -230 -4 -18 -4 -33
1 -33 7 0 152 208 161 231 2 5 -6 21 -17 35 -12 15 -21 37 -21 50 0 23 -3 24
-69 24 -50 0 -70 -4 -74 -14z m130 -54 c23 -39 24 -46 12 -70 -8 -15 -22 -34
-31 -43 -10 -9 -18 -21 -18 -26 0 -5 -10 -19 -23 -31 l-24 -22 4 27 c3 16 -3
61 -11 102 -19 88 -11 112 35 109 25 -2 36 -11 56 -46z"/>
<path d="M1800 2665 c-8 -2 -64 -11 -123 -21 -59 -10 -115 -23 -125 -30 -15
-11 -15 -14 -1 -31 9 -10 15 -23 12 -29 -2 -6 61 -63 140 -126 l143 -115 23
18 c13 11 38 19 56 19 l33 0 7 65 c7 65 2 115 -16 187 -14 53 -73 78 -149 63z
m96 -37 c36 -25 54 -83 54 -171 0 -66 -6 -74 -62 -90 -53 -16 -56 -15 -149 58
-163 128 -183 170 -94 192 45 12 128 25 194 31 14 1 39 -8 57 -20z"/>
<path d="M1469 2639 c-15 -29 6 -51 39 -38 28 11 27 20 -3 42 -23 17 -25 17
-36 -4z"/>
<path d="M1256 2641 c-7 -10 44 -22 58 -13 5 3 1 9 -10 13 -26 11 -42 11 -48
0z"/>
<path d="M2301 2619 c-12 -20 -8 -27 60 -95 41 -41 77 -74 81 -74 18 0 6 36
-14 45 -17 7 -23 19 -24 43 0 26 -9 41 -40 67 -21 19 -41 34 -44 35 -3 0 -11
-10 -19 -21z"/>
<path d="M1186 2587 c-6 -26 -4 -29 18 -21 20 8 21 30 2 37 -9 4 -16 -3 -20
-16z"/>
<path d="M1242 2584 c-11 -12 -10 -17 2 -30 18 -18 20 -38 6 -64 -6 -11 -7
-45 -3 -82 l6 -63 13 55 c7 30 22 76 33 102 21 50 17 58 -30 58 -22 0 -24 11
-7 28 7 7 8 12 3 12 -6 -1 -16 -7 -23 -16z"/>
<path d="M1405 2574 c-19 -14 -17 -19 30 -79 18 -22 45 -62 60 -88 15 -26 29
-47 30 -45 7 8 -28 145 -41 159 -7 8 -14 25 -14 36 0 25 -39 36 -65 17z"/>
<path d="M2248 2569 c-15 -8 -18 -25 -18 -99 0 -109 14 -130 83 -130 42 0 44
2 57 40 13 39 12 41 -32 117 -46 80 -60 90 -90 72z m62 -69 c36 -51 44 -87 26
-115 -34 -52 -87 -10 -85 67 2 85 21 101 59 48z"/>
<path d="M2073 2445 c-95 -143 -95 -156 3 -130 32 8 65 15 72 15 8 0 25 12 39
26 20 22 24 37 27 115 3 80 1 89 -15 89 -9 0 -23 2 -31 4 -8 3 -44 -42 -95
-119z m119 60 c5 -68 -3 -107 -28 -130 -28 -26 -96 -43 -102 -26 -2 6 -8 9
-13 5 -5 -3 -9 0 -9 5 0 6 5 11 10 11 6 0 10 7 10 15 0 9 7 18 15 21 8 4 15
10 15 14 0 5 14 31 31 59 33 52 68 66 71 26z"/>
<path d="M1027 2530 c-116 -25 -155 -41 -179 -75 -9 -12 -10 -166 -2 -229 5
-34 11 -46 21 -42 7 3 24 1 37 -4 23 -8 32 1 142 145 101 133 118 160 120 195
1 22 -1 40 -4 39 -4 0 -65 -13 -135 -29z m107 -26 c4 -9 -16 -44 -52 -92 -31
-42 -61 -84 -67 -93 -5 -9 -28 -37 -49 -62 -33 -40 -43 -46 -65 -40 -14 3 -29
10 -32 15 -3 4 -6 50 -8 102 -3 123 10 141 125 166 102 23 140 24 148 4z"/>
<path d="M1324 2523 c-22 -54 -61 -191 -69 -246 -5 -32 -3 -52 5 -62 10 -12 9
-20 -5 -41 -13 -20 -15 -39 -10 -92 10 -114 24 -162 46 -162 11 0 23 -10 28
-24 18 -45 131 -56 206 -18 48 23 65 43 59 66 -3 14 3 32 15 48 19 23 20 31
10 83 -17 91 -48 182 -64 189 -8 3 -15 16 -15 29 0 41 -150 266 -177 267 -7 0
-20 -17 -29 -37z m96 -75 c52 -74 76 -119 85 -159 4 -15 15 -38 24 -51 38 -47
73 -196 53 -221 -6 -7 -16 -33 -22 -58 -10 -39 -17 -48 -49 -62 -21 -10 -58
-17 -83 -17 -40 0 -51 5 -96 48 l-52 47 -6 83 c-4 55 -2 92 6 112 9 21 9 38 2
58 -11 32 12 147 53 270 10 29 43 9 85 -50z"/>
<path d="M1531 2511 c-12 -8 -12 -21 4 -95 9 -47 22 -86 28 -86 6 0 18 -6 26
-14 22 -19 229 -46 241 -31 7 8 -33 46 -130 123 -77 62 -143 112 -147 112 -5
0 -14 -4 -22 -9z m84 -60 c11 -9 24 -20 31 -26 6 -5 26 -21 44 -35 51 -38 70
-58 70 -76 0 -8 -4 -13 -9 -10 -4 3 -33 7 -64 10 -89 7 -137 56 -137 138 0 26
3 29 23 22 12 -3 31 -14 42 -23z"/>
<path d="M2371 2470 c13 -25 25 -47 26 -49 2 -3 9 1 15 7 10 10 4 21 -26 50
l-39 37 24 -45z"/>
<path d="M770 2469 c-14 -5 -34 -22 -44 -36 -18 -24 -18 -32 -8 -82 12 -54 48
-138 76 -174 8 -10 20 -15 30 -11 13 5 14 14 8 48 -4 22 -7 92 -6 154 0 121 0
122 -56 101z m31 -26 c0 -5 1 -55 2 -113 2 -98 1 -105 -15 -91 -9 8 -15 18
-12 23 3 4 1 8 -4 8 -8 0 -19 29 -37 98 -4 14 1 33 15 52 20 27 49 41 51 23z"/>
<path d="M1067 2324 c-103 -135 -117 -157 -106 -172 8 -9 14 -18 15 -20 1 -2
11 1 22 7 11 6 58 22 105 35 125 36 129 43 125 177 -2 84 -7 112 -18 119 -8 5
-17 10 -20 10 -3 0 -58 -70 -123 -156z m142 22 c-1 -95 -23 -127 -107 -151
-32 -9 -67 -21 -79 -26 -14 -5 -25 -4 -29 2 -7 12 46 93 102 154 19 22 43 52
52 67 15 26 38 39 54 31 4 -2 7 -37 7 -77z"/>
<path d="M581 2410 l-64 -28 -1 -48 -1 -49 80 -44 c44 -24 106 -58 137 -76 31
-18 59 -31 61 -28 3 3 -9 28 -27 56 -42 68 -51 91 -66 162 -11 51 -31 85 -50
84 -3 0 -34 -13 -69 -29z m89 -27 c0 -10 13 -55 29 -100 16 -46 27 -83 23 -83
-8 0 -97 46 -150 76 -27 16 -32 23 -27 44 3 14 6 33 6 42 0 34 119 54 119 21z"/>
<path d="M339 2388 c-8 -31 -6 -68 4 -77 11 -8 13 -4 9 19 -3 18 0 30 7 30 6
0 11 -8 11 -17 1 -23 25 -55 34 -46 4 4 23 6 43 5 32 -3 35 -1 23 13 -7 8 -24
15 -39 15 -15 0 -31 8 -39 20 -7 11 -21 20 -33 20 -11 0 -17 5 -14 10 3 6 4
10 1 10 -3 0 -6 -1 -7 -2z"/>
<path d="M2409 2363 c-22 -28 -40 -63 -32 -62 23 4 35 -3 30 -15 -7 -19 15
-27 28 -10 13 16 55 0 55 -21 0 -19 16 -20 24 0 7 19 46 19 71 1 11 -8 25 -12
32 -9 7 3 13 -2 13 -11 0 -9 -7 -19 -15 -22 -8 -4 -15 -11 -15 -17 0 -6 10 -2
21 10 29 29 20 73 -16 73 -14 0 -25 5 -25 10 0 6 -6 10 -12 9 -27 -5 -68 14
-68 30 0 19 -36 45 -50 36 -6 -4 -10 -1 -10 4 0 16 -15 13 -31 -6z m54 -31 c9
-11 7 -17 -8 -28 -16 -12 -21 -11 -37 6 -10 10 -18 24 -18 29 0 15 49 9 63 -7z"/>
<path d="M2096 2302 l-68 -17 -3 -37 c-1 -20 -8 -44 -15 -53 -11 -14 -11 -18
-1 -25 12 -7 161 71 226 117 20 15 20 15 -1 9 -11 -3 -29 0 -40 9 -23 17 -13
17 -98 -3z m64 -26 c0 -14 -98 -62 -107 -52 -3 2 -2 14 2 25 9 31 105 55 105
27z"/>
<path d="M2258 2308 c8 -8 20 -8 44 -1 l33 11 -44 1 c-34 1 -42 -2 -33 -11z"/>
<path d="M2326 2297 c-17 -12 -16 -14 7 -24 22 -10 24 -9 19 13 -5 28 -3 27
-26 11z"/>
<path d="M1590 2275 c-22 -27 129 -230 153 -206 6 6 19 11 28 11 9 0 32 19 51
43 45 55 52 68 35 61 -14 -5 -37 33 -37 61 0 8 -8 15 -17 15 -10 1 -60 7 -111
14 -72 10 -94 10 -102 1z m166 -31 c36 -4 42 -9 52 -40 9 -31 8 -38 -14 -63
-48 -57 -79 -46 -146 53 -44 64 -37 68 108 50z"/>
<path d="M1887 2258 c-4 -12 -4 -24 -1 -27 9 -9 104 -10 104 -1 0 11 -7 12
-55 14 -23 1 -29 5 -27 19 4 25 -15 21 -21 -5z"/>
<path d="M2178 2233 c-48 -26 -86 -48 -85 -49 1 -2 29 4 62 12 33 7 95 17 138
20 42 4 77 11 77 15 0 9 -77 49 -94 49 -6 0 -50 -22 -98 -47z"/>
<path d="M490 2255 c-7 -8 -19 -15 -26 -15 -18 0 -18 -3 6 -42 11 -18 25 -58
31 -88 14 -70 39 -86 100 -64 23 7 69 19 104 25 48 8 64 15 68 30 4 15 -8 27
-61 56 -37 20 -98 54 -135 75 -38 21 -70 38 -72 38 -1 0 -8 -7 -15 -15z m96
-49 c103 -57 146 -86 142 -98 -6 -16 -162 -52 -166 -38 -2 5 -9 10 -16 10 -7
0 -22 32 -35 71 -19 59 -21 73 -9 80 18 12 14 13 84 -25z"/>
<path d="M313 2165 c-30 -64 -34 -80 -25 -100 9 -19 7 -28 -9 -48 -10 -14 -19
-40 -19 -58 l0 -33 28 26 c30 30 99 62 153 72 53 10 59 22 42 86 -18 70 -43
113 -68 115 -11 1 -30 5 -43 9 -20 7 -26 0 -59 -69z m121 11 c8 -14 20 -43 25
-66 11 -50 1 -62 -66 -80 -26 -7 -52 -17 -57 -21 -18 -16 -21 -9 -20 49 2 76
1 73 24 110 25 41 69 45 94 8z"/>
<path d="M2466 2213 c-13 -13 -5 -31 12 -28 9 2 34 4 55 4 24 1 36 5 32 11 -4
6 -15 8 -25 5 -9 -3 -29 -1 -43 4 -14 5 -28 7 -31 4z"/>
<path d="M2653 2196 l-22 -25 44 -93 c24 -51 47 -105 50 -120 5 -18 14 -28 26
-28 23 0 25 13 4 30 -18 15 -20 51 -4 67 8 8 -1 36 -32 103 l-44 92 -22 -26z"/>
<path d="M2265 2196 c-146 -20 -233 -45 -241 -68 -5 -16 -13 -19 -36 -16 -36
6 -142 -61 -176 -112 -46 -69 -13 -164 81 -228 81 -56 79 -56 144 -17 144 85
252 201 330 351 32 61 35 74 24 88 -7 9 -19 16 -25 15 -6 -1 -51 -7 -101 -13z
m101 -43 c-23 -92 -238 -329 -352 -386 -29 -15 -34 -15 -70 4 -73 37 -114 83
-124 140 -7 35 -4 48 13 73 24 37 109 96 137 96 21 0 80 26 90 39 17 23 173
58 264 60 48 1 48 1 42 -26z"/>
<path d="M1600 2184 c0 -6 5 -25 11 -42 6 -17 13 -52 17 -78 5 -35 12 -48 26
-50 10 -1 23 -7 29 -13 8 -8 16 -6 29 6 25 23 23 36 -12 61 -16 12 -46 46 -65
75 -19 28 -35 47 -35 41z"/>
<path d="M1165 2175 c-5 -2 -49 -15 -97 -30 -85 -25 -87 -26 -78 -50 6 -16 6
-35 -1 -52 -8 -23 -7 -30 8 -41 63 -49 213 -91 213 -61 1 8 5 59 10 113 7 88
7 101 -8 113 -17 12 -28 14 -47 8z m31 -36 c3 -6 3 -49 -1 -95 -6 -80 -8 -84
-31 -84 -33 0 -130 46 -138 66 -10 26 -7 71 7 82 15 13 105 40 134 41 12 1 25
-4 29 -10z"/>
<path d="M2395 2122 c-10 -25 -39 -75 -63 -111 -38 -56 -41 -63 -19 -48 15 9
35 17 45 17 29 0 81 73 88 124 5 37 3 46 -13 54 -16 9 -21 4 -38 -36z"/>
<path d="M1842 2113 l-32 -42 76 32 c42 18 77 36 77 41 1 4 -18 9 -44 10 -42
2 -47 -1 -77 -41z"/>
<path d="M2583 2145 c-18 -6 -35 -13 -38 -17 -3 -3 34 -46 84 -94 97 -96 98
-94 25 46 l-39 76 -32 -11z"/>
<path d="M2460 2108 c0 -30 1 -31 16 -16 9 9 14 24 11 32 -11 27 -27 17 -27
-16z"/>
<path d="M803 2083 c5 -37 17 -63 30 -63 7 0 7 4 -1 12 -7 7 -12 27 -12 45 0
18 -4 33 -10 33 -5 0 -8 -12 -7 -27z"/>
<path d="M830 2101 c0 -6 7 -11 16 -11 14 0 14 -3 4 -15 -10 -12 -10 -18 0
-30 7 -8 10 -22 6 -30 -4 -11 1 -15 20 -15 14 0 22 -4 19 -10 -9 -14 5 -12 35
5 22 13 23 14 5 15 -20 1 -20 1 -1 15 11 8 16 15 12 15 -5 0 -4 6 2 13 8 9 2
13 -26 15 -20 1 -43 8 -51 16 -26 22 -41 28 -41 17z m100 -62 c0 -5 -4 -9 -10
-9 -5 0 -10 -6 -10 -14 0 -9 -7 -12 -20 -9 -19 5 -26 23 -15 35 9 9 55 6 55
-3z"/>
<path d="M2474 2069 c-27 -29 -31 -157 -10 -275 22 -115 74 -274 91 -274 7 0
18 -7 25 -15 7 -8 16 -15 20 -15 8 0 67 148 105 267 23 70 24 77 8 88 -12 9
-15 21 -10 49 6 36 3 41 -72 117 -86 87 -119 99 -157 58z m123 -56 c23 -27 51
-59 62 -72 13 -15 19 -32 15 -45 -3 -12 2 -37 10 -56 14 -34 13 -41 -23 -145
-46 -137 -56 -156 -79 -148 -9 4 -22 12 -27 17 -13 14 -57 148 -61 189 -2 18
-8 54 -14 80 -17 84 -13 171 11 201 30 39 58 33 106 -21z"/>
<path d="M660 2044 c-52 -13 -96 -28 -98 -34 -2 -6 -11 -17 -19 -26 -13 -13
-14 -34 -8 -139 l7 -125 32 1 c28 0 41 13 134 135 91 121 101 137 87 150 -8 9
-18 26 -21 40 -3 13 -9 24 -13 23 -3 0 -49 -11 -101 -25z m96 -21 c22 -29 17
-44 -44 -125 -87 -116 -108 -137 -130 -131 -17 4 -21 16 -26 71 -7 75 -6 84
13 130 11 27 22 35 70 48 31 8 61 17 66 19 23 8 39 4 51 -12z"/>
<path d="M1733 2007 c-17 -18 -33 -41 -35 -52 -4 -23 -32 -22 -56 1 -17 18
-27 11 -18 -12 4 -9 9 -14 13 -10 3 3 17 -1 29 -9 22 -14 24 -12 64 46 23 34
40 62 38 64 -2 2 -17 -11 -35 -28z"/>
<path d="M2415 2006 c-15 -22 -14 -26 3 -55 l19 -32 0 56 c0 30 -1 55 -3 55
-2 0 -11 -11 -19 -24z"/>
<path d="M1230 1994 c0 -16 -3 -39 -6 -51 -5 -17 -2 -23 10 -23 15 0 16 7 10
48 -8 56 -14 67 -14 26z"/>
<path d="M405 1996 c-55 -17 -85 -34 -117 -64 -32 -29 -35 -44 -13 -62 19 -16
19 -54 1 -69 -12 -10 -11 -20 1 -69 l14 -57 56 0 55 0 23 45 c36 68 71 223 59
257 -11 33 -25 36 -79 19z m51 -28 c12 -19 5 -76 -17 -150 -27 -87 -37 -99
-87 -104 -37 -3 -44 -1 -52 20 -5 15 -4 39 4 67 9 31 10 52 3 76 -11 35 2 63
29 63 8 0 14 4 14 9 0 9 53 28 82 30 9 1 20 -4 24 -11z"/>
<path d="M1738 1957 c-22 -34 -25 -43 -12 -45 14 -4 54 32 54 49 0 4 3 14 6
23 13 34 -22 14 -48 -27z"/>
<path d="M944 1980 c-8 -8 -7 -27 3 -63 7 -28 13 -64 13 -79 0 -16 6 -31 13
-34 7 -2 44 8 81 24 l67 29 -75 66 c-77 69 -85 74 -102 57z m76 -72 c37 -27
39 -55 3 -69 -28 -10 -42 0 -43 31 0 8 -3 25 -6 38 -8 28 8 29 46 0z"/>
<path d="M507 1935 c-8 -48 -18 -85 -57 -222 l-18 -61 35 3 c19 2 35 5 36 7 1
1 7 12 12 23 6 12 8 74 5 160 -4 118 -7 132 -13 90z"/>
<path d="M729 1858 c-52 -67 -99 -129 -106 -138 -8 -12 -8 -20 3 -34 13 -19
16 -19 76 -2 96 27 200 75 225 105 23 27 24 34 2 131 -9 42 -12 45 -42 46 -18
0 -39 3 -48 7 -11 6 -38 -22 -110 -115z m178 68 c3 -3 8 -26 11 -51 8 -71 -26
-99 -188 -156 -30 -10 -58 -19 -62 -19 -22 0 -2 46 49 111 96 126 103 131 146
126 21 -3 41 -8 44 -11z"/>
<path d="M2786 1909 c3 -26 2 -49 -4 -53 -11 -7 8 -76 22 -76 11 0 0 120 -14
152 -7 17 -8 11 -4 -23z"/>
<path d="M1080 1936 c0 -2 18 -15 41 -30 33 -23 43 -25 56 -15 13 11 7 16 -39
31 -60 20 -58 19 -58 14z"/>
<path d="M2222 1871 c-78 -76 -117 -142 -103 -170 6 -11 10 -24 9 -30 -2 -5
17 -23 40 -41 42 -30 45 -31 75 -16 30 14 34 21 60 132 25 104 26 119 12 126
-8 5 -15 20 -15 33 0 14 -4 25 -9 25 -5 0 -36 -26 -69 -59z m78 -26 c0 -23
-25 -140 -35 -167 -10 -26 -42 -38 -73 -27 -23 8 -32 19 -40 50 -11 45 -4 58
76 133 48 46 72 49 72 11z"/>
<path d="M2335 1921 c-7 -12 3 -17 48 -24 30 -5 38 8 10 16 -10 2 -25 8 -34
12 -10 3 -20 2 -24 -4z"/>
<path d="M1191 1889 c-23 -19 -23 -20 -5 -34 17 -12 19 -11 22 11 2 13 8 22
13 19 5 -3 6 1 3 9 -7 19 -4 20 -33 -5z"/>
<path d="M1579 1892 c-54 -43 -89 -54 -158 -50 -36 2 -74 8 -83 12 -35 16 -17
-11 21 -32 27 -15 56 -22 94 -22 53 0 58 3 109 49 52 48 65 80 17 43z"/>
<path d="M1650 1900 c12 -8 12 -10 -5 -10 -17 0 -121 -88 -113 -95 2 -1 17 -5
33 -9 28 -5 33 -1 68 50 42 62 45 74 20 74 -15 0 -16 -2 -3 -10z"/>
<path d="M1691 1863 c-25 -94 -24 -93 -3 -93 11 0 34 -3 52 -6 l32 -7 -7 59
c-8 65 -18 84 -46 84 -13 0 -21 -11 -28 -37z m47 -46 c2 -19 -1 -27 -12 -27
-20 0 -26 12 -19 39 7 29 27 21 31 -12z"/>
<path d="M2407 1873 c-9 -9 -26 -17 -38 -18 -19 -1 -25 -15 -50 -115 l-28
-113 24 -19 c13 -10 25 -30 27 -45 2 -23 13 -31 63 -50 91 -35 90 -35 104 -10
10 19 7 36 -18 113 -17 50 -37 129 -44 177 -8 48 -16 90 -19 92 -2 3 -12 -3
-21 -12z m12 -55 c4 -13 14 -54 20 -93 7 -38 20 -85 28 -104 23 -51 22 -94 -2
-99 -25 -5 -83 26 -90 49 -3 9 -17 34 -31 54 l-25 37 21 79 c11 43 20 81 20
83 0 4 22 12 43 15 4 0 11 -9 16 -21z"/>
<path d="M1243 1850 c3 -11 0 -20 -6 -20 -7 0 -4 -5 7 -11 13 -8 25 -8 41 -1
17 8 25 8 27 0 2 -6 10 -9 17 -7 8 3 -2 15 -26 32 -47 32 -67 35 -60 7z"/>
<path d="M1641 1823 c-25 -39 -28 -49 -15 -51 9 -2 17 -2 20 0 5 6 33 98 29
98 -1 0 -17 -21 -34 -47z"/>
<path d="M1780 1817 c0 -54 2 -58 33 -77 17 -11 48 -20 68 -20 19 0 40 -5 46
-11 6 -6 17 -8 23 -4 8 5 -4 16 -32 32 -52 29 -94 67 -119 108 l-19 30 0 -58z"/>
<path d="M1150 1852 c0 -17 40 -46 50 -36 6 6 -1 16 -20 27 -17 10 -30 14 -30
9z"/>
<path d="M1050 1809 l-65 -28 52 -1 c28 0 55 5 58 11 4 6 19 10 33 9 43 -3 46
-1 27 20 -22 25 -25 25 -105 -11z"/>
<path d="M2747 1830 c-3 -8 -15 -46 -27 -85 -13 -38 -40 -114 -62 -168 -22
-54 -38 -99 -37 -101 2 -1 23 -7 46 -13 42 -10 43 -9 61 22 27 44 72 160 72
182 0 10 -7 28 -15 40 -9 13 -13 32 -10 46 7 28 -19 101 -28 77z m23 -172 c0
-31 -26 -102 -49 -135 -9 -12 -27 -23 -40 -23 -19 0 -22 4 -18 23 7 33 51 148
66 176 13 24 14 24 27 6 8 -10 14 -31 14 -47z"/>
<path d="M1205 1800 c-11 -18 47 -78 83 -85 30 -6 65 7 51 18 -19 17 -113 77
-120 77 -4 0 -11 -4 -14 -10z"/>
<path d="M1280 1798 c0 -3 17 -17 38 -31 37 -24 39 -24 62 -7 12 9 18 20 13
23 -12 8 -113 21 -113 15z"/>
<path d="M2109 1784 c-7 -9 -36 -29 -63 -44 l-50 -29 28 -11 c21 -8 31 -7 42
5 9 8 20 15 25 15 5 0 9 6 9 14 0 7 9 25 21 40 22 28 11 37 -12 10z"/>
<path d="M201 1738 c-5 -29 -13 -75 -16 -101 l-6 -48 40 40 c40 40 40 40 26
75 -8 20 -15 44 -15 55 0 43 -19 28 -29 -21z"/>
<path d="M1170 1765 c0 -15 6 -25 14 -25 8 0 23 -3 33 -7 14 -6 13 -1 -7 24
-31 39 -40 41 -40 8z"/>
<path d="M240 1772 c0 -14 32 -103 36 -100 4 5 -26 108 -32 108 -2 0 -4 -4 -4
-8z"/>
<path d="M980 1760 c0 -5 23 -10 51 -10 31 0 48 4 44 10 -3 6 -26 10 -51 10
-24 0 -44 -4 -44 -10z"/>
<path d="M1660 1747 c0 -7 5 -18 12 -25 15 -15 64 -16 73 -2 3 6 11 10 16 10
6 0 7 -4 4 -10 -7 -11 34 -23 66 -18 18 2 9 8 -36 24 -84 31 -135 39 -135 21z"/>
<path d="M1423 1727 c-30 -21 -45 -57 -23 -57 6 0 10 9 10 19 0 11 9 22 19 26
20 6 50 36 35 34 -5 0 -23 -11 -41 -22z"/>
<path d="M975 1730 c-94 -10 -174 -35 -269 -82 -87 -44 -206 -117 -206 -128 0
-6 173 -90 243 -119 16 -6 39 -8 53 -5 17 4 29 1 37 -10 9 -12 38 -17 122 -22
109 -6 110 -6 120 17 6 13 20 25 31 27 34 5 59 73 59 157 -1 75 -23 135 -50
135 -8 0 -20 9 -27 20 -7 11 -20 19 -28 19 -8 -1 -46 -5 -85 -9z m121 -48 c40
-35 58 -90 49 -150 -8 -55 -16 -68 -75 -117 -44 -36 -45 -37 -108 -30 -36 4
-85 15 -109 26 -25 10 -49 17 -53 14 -20 -12 -234 75 -243 99 -3 7 12 20 39
32 24 10 44 22 44 26 0 13 162 84 230 101 139 35 186 35 226 -1z"/>
<path d="M1156 1714 c-3 -8 2 -30 11 -47 26 -49 24 -161 -4 -217 -37 -74 -7
-69 97 15 23 18 25 27 24 95 -1 80 -24 146 -53 154 -58 15 -69 15 -75 0z m95
-83 c3 -50 0 -142 -6 -151 -4 -6 -14 -9 -23 -8 -9 2 -16 -3 -15 -9 2 -7 -2
-13 -8 -13 -6 0 -8 11 -5 28 13 59 15 118 5 156 -8 30 -8 41 3 47 15 10 47
-23 49 -50z"/>
<path d="M1282 1675 c10 -22 13 -23 20 -10 11 18 2 35 -17 35 -12 0 -12 -5 -3
-25z"/>
<path d="M1706 1668 c8 -16 18 -28 23 -28 27 0 121 24 121 31 0 11 9 9 -82 17
l-76 7 14 -27z"/>
<path d="M1330 1664 c0 -14 2 -15 17 -3 15 12 16 12 10 -4 -4 -10 -7 -32 -7
-48 0 -22 -4 -27 -17 -23 -16 5 -16 4 0 -6 10 -6 17 -21 16 -33 -3 -44 0 -50
17 -33 11 11 14 25 9 45 -8 36 9 73 30 65 17 -7 20 -50 4 -59 -14 -9 41 -55
67 -55 25 0 67 29 44 31 -8 1 -22 1 -31 0 -26 -3 -45 27 -31 49 13 22 -7 45
-50 55 -15 4 -29 13 -32 21 -8 20 -46 18 -46 -2z"/>
<path d="M544 1646 c1 -20 4 -22 22 -15 12 4 24 5 27 2 3 -3 11 -2 18 2 7 5
-3 13 -27 21 -22 8 -40 14 -40 14 -1 0 -1 -11 0 -24z"/>
<path d="M2005 1660 c22 -5 67 -17 100 -28 57 -19 58 -19 35 -1 -14 10 -35 19
-47 19 -12 0 -25 5 -28 10 -3 6 -27 10 -53 9 l-47 -1 40 -8z"/>
<path d="M250 1632 c-15 -12 -24 -33 -27 -57 -5 -48 -22 -72 -35 -53 -11 15
-4 -45 8 -76 5 -14 4 -17 -5 -11 -10 6 -11 3 -2 -14 14 -25 23 -28 14 -4 -5
11 -3 14 6 8 10 -6 11 -3 2 13 -6 11 -11 29 -11 39 0 13 14 2 48 -34 26 -29
54 -53 62 -52 10 0 8 3 -5 9 -17 7 -17 9 -2 9 9 1 17 6 17 12 0 6 -7 8 -16 5
-36 -14 -95 97 -66 126 16 16 34 -1 28 -26 -3 -14 3 -29 20 -45 23 -22 26 -22
42 -8 16 14 21 15 45 2 15 -8 35 -11 44 -8 11 4 14 3 9 -5 -4 -8 -2 -10 8 -6
8 3 12 12 9 20 -3 8 -9 11 -14 8 -5 -3 -9 2 -9 12 0 14 -7 16 -36 11 -32 -5
-40 -2 -77 34 -23 22 -47 37 -53 35 -19 -7 -4 37 20 56 11 10 16 18 10 18 -7
0 -22 -8 -34 -18z"/>
<path d="M483 1642 c-13 -2 -23 -10 -23 -17 0 -21 13 -25 37 -12 27 15 17 34
-14 29z"/>
<path d="M1848 1623 c-43 -47 -61 -93 -62 -158 0 -73 34 -155 65 -155 10 0 26
-11 34 -24 14 -21 26 -24 104 -30 65 -5 95 -4 109 5 15 9 24 10 34 2 17 -14
134 5 254 42 66 20 84 30 84 44 0 10 -33 48 -74 85 -66 59 -77 65 -105 60 -43
-9 -81 17 -81 55 0 26 -6 31 -69 54 -103 39 -187 54 -211 39 -24 -14 -64 -16
-55 -2 11 18 -1 10 -27 -17z m205 -17 c78 -20 112 -40 136 -81 21 -35 82 -72
101 -60 21 13 130 -77 130 -106 0 -29 -177 -78 -255 -71 -11 1 -29 2 -40 1
-11 -1 -59 -1 -107 -1 -79 0 -90 3 -120 27 -18 14 -37 25 -42 25 -16 -2 -44
57 -49 102 -5 51 13 112 40 138 40 36 124 47 206 26z"/>
<path d="M1758 1627 c-26 -6 -35 -13 -31 -23 4 -12 11 -10 40 7 49 30 52 17 3
-15 -31 -20 -40 -33 -40 -55 0 -15 -11 -49 -24 -74 -20 -37 -23 -53 -18 -92 7
-44 10 -48 54 -67 71 -30 83 -20 51 41 -44 86 -33 200 28 266 17 19 17 20 -4
21 -12 0 -39 -3 -59 -9z m-3 -244 c5 -33 4 -43 -7 -43 -35 0 -49 50 -27 92 14
26 24 12 34 -49z"/>
<path d="M2801 1609 c-1 -9 -18 -51 -39 -93 -36 -72 -38 -78 -21 -87 15 -8 17
-6 12 6 -4 11 1 18 15 22 17 4 20 10 15 35 -5 24 -1 34 16 47 20 15 21 21 13
52 -6 19 -11 27 -11 18z"/>
<path d="M506 1588 c-29 -41 -18 -48 28 -20 34 21 40 28 27 34 -28 12 -39 9
-55 -14z"/>
<path d="M2247 1560 c9 -19 21 -29 28 -26 8 3 15 -2 17 -10 2 -11 6 -10 16 6
11 17 10 20 -7 20 -10 0 -30 9 -44 20 l-26 20 16 -30z"/>
<path d="M1656 1548 c-7 -23 -11 -26 -27 -17 -10 5 -19 6 -19 2 0 -4 -5 0 -11
10 -8 14 -14 15 -24 7 -21 -18 -11 -45 18 -48 15 -2 27 -8 27 -13 0 -5 6 -9
14 -9 17 0 39 52 33 77 -3 14 -5 12 -11 -9z"/>
<path d="M2333 1524 c21 -21 172 -112 178 -108 21 13 -25 48 -101 79 -44 18
-79 31 -77 29z"/>
<path d="M1377 1493 c-3 -3 5 -20 18 -38 14 -17 25 -37 25 -43 0 -15 40 -26
52 -14 6 6 6 12 -1 16 -6 4 -11 5 -11 1 0 -3 -9 -1 -20 5 -11 6 -20 15 -20 21
0 16 -36 59 -43 52z"/>
<path d="M1452 1485 c1 -10 13 -21 25 -26 20 -7 21 -6 14 14 -10 27 -44 37
-39 12z"/>
<path d="M1648 1466 c-20 -14 -25 -32 -7 -20 8 4 9 -1 4 -17 l-7 -24 17 23
c22 30 17 56 -7 38z"/>
<path d="M484 1456 c-4 -9 0 -26 7 -37 12 -18 26 -21 117 -23 l103 -2 -93 33
c-133 47 -127 46 -134 29z"/>
<path d="M1257 1418 c-37 -54 -77 -98 -77 -83 0 4 17 28 37 53 39 47 38 49
-14 17 -34 -21 -48 -63 -27 -83 10 -9 27 1 74 44 33 31 63 54 66 51 6 -6 -65
-73 -127 -121 -21 -16 -37 -31 -35 -33 6 -6 56 20 52 26 -3 4 14 14 37 24 49
21 104 90 87 110 -6 7 -17 21 -24 31 -12 18 -15 15 -49 -36z"/>
<path d="M2430 1427 c42 -45 66 -59 58 -36 -2 6 -26 27 -53 47 l-50 36 45 -47z"/>
<path d="M2806 1431 c5 -23 2 -32 -14 -42 -17 -10 -18 -17 -10 -41 7 -19 6
-44 -2 -79 -7 -27 -10 -52 -7 -55 7 -7 34 115 43 189 5 39 3 57 -4 57 -7 0 -9
-11 -6 -29z"/>
<path d="M400 1410 c-16 -13 -20 -19 -10 -19 28 1 49 14 42 26 -5 8 -14 6 -32
-7z"/>
<path d="M1496 1413 c-10 -10 -7 -33 5 -33 5 0 7 5 4 10 -3 6 3 10 14 10 11 0
22 4 25 8 6 9 -38 14 -48 5z"/>
<path d="M1656 1398 c-7 -16 11 -64 20 -55 3 3 1 20 -4 38 -7 26 -11 30 -16
17z"/>
<path d="M1330 1375 c-27 -29 -24 -30 19 -12 26 11 30 16 18 25 -11 9 -19 6
-37 -13z"/>
<path d="M2540 1382 c0 -11 9 -27 21 -38 19 -18 20 -19 2 -32 -17 -13 -17 -14
2 -27 11 -8 26 -19 33 -25 7 -6 12 -7 12 -1 0 17 38 23 62 9 13 -7 26 -13 31
-14 4 -1 8 -2 10 -4 8 -6 38 -7 42 -1 10 18 -22 41 -63 46 -32 3 -54 13 -83
39 -21 20 -44 36 -50 36 -6 0 -9 7 -5 15 3 8 1 15 -4 15 -6 0 -10 -8 -10 -18z"/>
<path d="M204 1379 c-3 -6 4 -54 17 -107 l24 -97 6 81 c3 45 9 87 14 93 4 7
-1 18 -11 26 -23 17 -41 19 -50 4z"/>
<path d="M520 1372 c0 -17 128 -147 193 -196 l69 -53 40 21 c36 20 38 23 33
56 -12 70 -36 129 -56 135 -10 4 -19 12 -19 19 0 8 -19 16 -52 20 -74 8 -208
8 -208 -2z m224 -37 c21 -9 45 -23 53 -30 17 -17 40 -94 35 -116 -6 -29 -44
-30 -84 -4 -58 39 -179 156 -171 167 8 15 119 3 167 -17z"/>
<path d="M1080 1376 c0 -12 27 -36 40 -36 6 0 8 -5 4 -12 -5 -8 -1 -7 10 1 17
14 17 15 -5 23 -13 5 -29 14 -36 20 -7 6 -13 7 -13 4z"/>
<path d="M1626 1364 c-3 -9 6 -31 21 -52 42 -57 46 -60 26 -17 -10 22 -23 43
-30 48 -7 4 -10 14 -7 22 4 8 4 15 1 15 -3 0 -8 -7 -11 -16z"/>
<path d="M361 1359 c-14 -5 -37 -7 -52 -4 -24 5 -27 3 -33 -27 -4 -18 -9 -65
-13 -104 -6 -71 -6 -72 23 -85 19 -9 30 -23 32 -39 3 -26 73 -85 92 -78 15 5
16 298 1 326 -13 24 -15 25 -50 11z m25 -35 c19 -5 21 -12 18 -77 -2 -40 -3
-96 -4 -124 0 -41 -4 -53 -16 -53 -8 0 -12 4 -9 10 3 6 -1 7 -9 4 -11 -4 -16
0 -16 15 0 12 -9 30 -19 40 -11 11 -24 29 -30 40 -14 26 -14 131 0 131 5 0 7
5 4 10 -7 11 46 14 81 4z"/>
<path d="M1345 1345 c-28 -13 -56 -30 -64 -38 -7 -9 -18 -14 -26 -11 -7 3 -16
0 -20 -7 -5 -7 -3 -10 6 -7 8 3 21 -1 30 -9 14 -11 25 -11 75 2 64 17 129 12
176 -11 39 -20 40 -18 10 31 -21 35 -33 44 -55 45 -15 0 -40 6 -55 14 -24 12
-33 11 -77 -9z m41 -30 c-25 -19 -36 -19 -36 0 0 10 10 15 28 15 26 -1 26 -1
8 -15z"/>
<path d="M1562 1348 c-23 -11 -22 -13 34 -65 32 -29 55 -56 51 -60 -4 -4 -33
18 -64 48 -39 37 -50 44 -35 22 12 -17 22 -35 22 -41 0 -17 31 -36 59 -37 14
0 32 -4 39 -8 7 -5 14 -2 18 7 5 14 -83 147 -96 145 -3 0 -15 -5 -28 -11z"/>
<path d="M835 1329 c4 -13 16 -58 28 -99 18 -65 25 -77 52 -90 l32 -16 86 64
c48 35 85 68 82 72 -5 8 -186 68 -259 86 -27 6 -29 5 -21 -17z m165 -49 c19
-7 41 -14 49 -16 19 -6 -32 -60 -80 -83 -48 -23 -75 -11 -83 38 -3 20 -9 47
-12 60 -7 23 -6 23 42 18 27 -3 65 -11 84 -17z"/>
<path d="M988 1325 c46 -14 98 -31 117 -39 30 -13 35 -13 51 5 18 20 16 22
-32 19 -21 -1 -37 5 -45 17 -11 14 -30 18 -94 20 l-80 2 83 -24z"/>
<path d="M445 1321 c-3 -2 -5 -69 -5 -148 0 -135 1 -144 23 -165 20 -21 32
-23 112 -23 60 0 107 6 141 18 45 16 51 20 47 41 -3 14 -1 32 5 42 8 15 2 24
-37 53 -25 19 -88 69 -140 110 -84 68 -129 90 -146 72z m107 -78 c29 -25 78
-65 110 -88 78 -58 88 -69 81 -93 -8 -33 -65 -53 -153 -55 -71 -2 -81 0 -104
22 -25 24 -26 29 -26 136 0 61 3 115 7 118 14 15 34 5 85 -40z"/>
<path d="M1696 1294 c-3 -8 -2 -13 3 -10 5 3 14 -8 21 -24 10 -25 18 -30 46
-30 53 0 41 31 -24 60 -35 16 -41 16 -46 4z"/>
<path d="M2380 1284 c-41 -12 -88 -23 -105 -24 -28 -1 -28 -2 -8 -10 12 -5 42
-9 65 -9 142 1 138 0 138 23 0 41 -11 43 -90 20z"/>
<path d="M1338 1254 c-38 -12 -45 -18 -41 -34 3 -13 -5 -28 -24 -47 -34 -32
-59 -124 -48 -180 3 -19 2 -40 -3 -46 -13 -16 8 -159 38 -260 21 -70 25 -77
49 -77 14 0 38 -6 53 -14 25 -13 28 -12 41 7 27 43 28 52 3 22 -14 -16 -28
-26 -32 -22 -4 4 13 28 37 54 80 87 101 118 93 147 -7 28 17 66 42 66 15 0 29
43 49 159 15 82 15 85 -5 106 -15 16 -19 30 -15 47 5 20 1 30 -22 46 -58 41
-135 51 -215 26z m179 -32 c13 -7 25 -25 29 -40 3 -15 12 -40 21 -55 28 -53 0
-185 -50 -237 -19 -19 -33 -47 -38 -76 -5 -26 -15 -52 -22 -58 -7 -6 -21 -24
-31 -39 -49 -80 -95 -99 -128 -53 -30 41 -53 150 -51 246 3 172 7 193 52 260
34 53 49 66 74 70 41 7 116 -3 144 -18z"/>
<path d="M1174 1248 c-4 -7 -3 -8 4 -4 7 4 12 2 12 -3 0 -23 36 -47 60 -41
l25 6 -22 12 c-12 7 -29 12 -37 12 -9 0 -16 7 -16 15 0 18 -16 20 -26 3z"/>
<path d="M1820 1249 c0 -5 26 -9 58 -8 64 1 60 5 -10 12 -27 2 -48 1 -48 -4z"/>
<path d="M2145 1218 c-7 -15 -18 -22 -31 -21 -17 2 -30 -15 -68 -88 -27 -50
-46 -91 -45 -93 2 -1 17 -10 32 -20 l28 -17 112 73 c62 41 129 84 150 97 26
16 37 30 37 46 0 21 -6 24 -57 30 -32 3 -78 8 -103 11 -40 5 -46 2 -55 -18z
m153 -16 c50 -4 23 -30 -142 -138 -106 -69 -146 -48 -86 46 53 82 99 101 228
92z"/>
<path d="M1109 1202 c-30 -16 -78 -44 -106 -63 l-50 -34 14 -32 c7 -18 19 -33
27 -33 7 0 48 -11 90 -25 60 -20 81 -23 97 -14 19 10 20 17 14 92 -4 45 -12
95 -19 110 l-11 29 -56 -30z m47 -32 c10 0 14 -14 14 -56 0 -78 -12 -98 -57
-89 -19 3 -53 16 -74 27 -55 28 -49 51 21 90 30 16 59 34 65 39 6 6 11 6 13
-1 2 -5 10 -10 18 -10z"/>
<path d="M1863 1211 c-30 -15 -33 -20 -33 -64 0 -77 54 -167 82 -139 7 7 26
12 44 12 28 0 34 5 49 43 9 23 30 63 46 90 46 75 44 77 -63 76 -63 -1 -103 -7
-125 -18z m166 -19 c5 -9 1 -29 -10 -52 -11 -22 -19 -43 -19 -48 0 -15 -36
-42 -61 -47 -32 -6 -59 3 -59 20 0 7 -4 15 -10 17 -5 2 -12 17 -16 33 -8 44
28 88 67 83 16 -3 29 -1 29 2 0 13 71 5 79 -8z"/>
<path d="M2458 1205 c-4 -19 -1 -25 12 -25 26 0 43 23 28 38 -19 19 -35 14
-40 -13z"/>
<path d="M1740 1213 c0 -5 16 -32 36 -61 42 -63 40 -82 -2 -23 -30 42 -44 51
-44 28 0 -7 23 -35 51 -62 29 -28 48 -43 43 -35 -5 8 -9 47 -10 85 l0 70 -37
3 c-20 2 -37 0 -37 -5z"/>
<path d="M1694 1199 c-3 -6 1 -18 10 -27 15 -15 16 -14 16 11 0 27 -13 36 -26
16z"/>
<path d="M2503 1175 c-16 -11 -22 -30 -27 -78 -4 -34 -15 -101 -26 -147 -10
-47 -15 -89 -10 -94 16 -17 98 25 119 60 14 24 28 34 44 34 29 0 37 28 37 130
l0 67 -41 6 c-22 3 -48 12 -58 21 -15 14 -20 14 -38 1z m41 -34 c3 -5 22 -12
41 -15 37 -7 39 -12 35 -86 -2 -33 -18 -66 -27 -56 -3 3 -26 -17 -51 -44 -37
-39 -49 -47 -63 -39 -10 5 -16 15 -14 22 5 14 11 46 26 142 6 39 13 73 16 78
6 10 31 9 37 -2z"/>
<path d="M1670 1167 c0 -8 -11 -24 -25 -35 -18 -14 -25 -30 -25 -53 0 -30 -10
-83 -26 -144 -3 -11 18 21 45 70 28 50 58 99 66 111 14 19 13 22 -10 44 -20
19 -25 20 -25 7z"/>
<path d="M1209 1123 l4 -48 8 35 c9 36 5 60 -8 60 -5 0 -6 -21 -4 -47z"/>
<path d="M2434 1159 c-4 -6 -19 -9 -36 -5 -24 5 -51 -9 -177 -91 l-148 -97 1
-52 c0 -50 1 -52 36 -64 19 -6 83 -14 141 -17 99 -5 109 -4 136 17 25 18 33
35 47 101 23 107 32 219 18 219 -6 0 -14 -5 -18 -11z m0 -88 c-7 -100 -24
-150 -62 -188 l-35 -35 -91 4 c-119 6 -146 19 -146 69 0 35 4 40 78 88 42 28
82 55 89 61 7 5 16 10 20 10 4 1 22 12 38 26 23 18 40 24 72 22 l41 -2 -4 -55z"/>
<path d="M2665 1154 c-6 -2 -9 -30 -7 -63 2 -32 -1 -75 -6 -95 -6 -20 -9 -36
-7 -36 2 0 18 23 35 52 31 51 32 52 15 81 -9 15 -15 37 -12 48 5 19 2 21 -18
13z"/>
<path d="M2714 1124 c3 -9 6 -21 6 -27 0 -12 29 23 30 36 0 4 -9 7 -21 7 -15
0 -19 -4 -15 -16z"/>
<path d="M2753 1113 c-3 -10 -8 -22 -11 -26 -2 -5 5 -4 18 3 12 6 28 9 36 6 8
-3 14 1 14 8 0 13 -20 26 -41 26 -5 0 -12 -8 -16 -17z"/>
<path d="M1718 1103 c-9 -10 -43 -67 -77 -126 -52 -93 -59 -111 -48 -127 6
-11 19 -18 27 -16 8 3 66 15 128 27 102 20 112 24 106 41 -3 11 0 33 7 50 12
29 11 31 -57 99 -66 66 -71 69 -86 52z m81 -85 c36 -40 40 -49 34 -82 -4 -26
-12 -38 -27 -41 -89 -21 -169 -34 -176 -30 -5 3 -5 18 0 34 7 27 63 134 81
157 17 21 49 7 88 -38z"/>
<path d="M800 1052 c1 -23 2 -24 11 -9 5 9 17 17 24 17 18 0 20 -16 3 -23 -27
-11 12 -23 54 -18 53 8 60 26 11 29 -20 2 -43 8 -51 14 -8 7 -23 13 -33 15
-15 2 -19 -3 -19 -25z"/>
<path d="M310 1052 c0 -12 37 -37 70 -47 20 -6 18 -3 -10 17 -54 37 -60 40
-60 30z"/>
<path d="M953 1004 c-15 -31 -21 -20 91 -171 118 -158 125 -157 145 20 8 73 8
80 -13 100 -19 19 -172 77 -202 77 -5 0 -14 -12 -21 -26z m138 -29 c66 -24 82
-51 74 -131 -5 -42 -13 -68 -21 -71 -14 -5 -94 72 -94 90 0 4 -9 18 -21 30
-28 30 -51 75 -44 87 9 15 55 12 106 -5z"/>
<path d="M328 988 c11 -18 38 -66 62 -106 43 -73 67 -101 57 -66 -3 11 -9 43
-12 73 -8 58 -27 84 -84 113 -46 23 -46 23 -23 -14z"/>
<path d="M715 987 c-37 -15 -76 -20 -152 -21 -56 0 -106 -5 -111 -11 -4 -6 -4
-43 1 -83 8 -64 11 -72 27 -67 40 13 100 -37 100 -84 0 -15 9 -22 38 -26 20
-4 51 -10 69 -15 44 -11 59 9 68 95 4 38 16 98 26 132 19 61 19 64 2 81 -17
18 -20 18 -68 -1z m63 -15 c-6 -16 -201 -192 -212 -192 -6 0 36 45 94 100 95
89 128 115 118 92z m-95 -38 c-3 -8 -9 -11 -14 -8 -5 3 -9 -1 -9 -8 0 -17 -71
-84 -98 -92 -10 -4 -35 1 -55 9 -32 13 -37 20 -37 49 0 53 15 61 122 62 77 1
95 -1 91 -12z m62 -78 c-8 -93 -15 -120 -35 -137 -28 -24 -80 -11 -100 23 -14
27 -14 28 44 82 33 30 63 53 67 51 4 -3 9 4 12 15 10 39 17 19 12 -34z"/>
<path d="M837 1004 c-14 -14 -6 -24 16 -20 12 3 28 5 35 5 6 1 12 6 12 11 0 7
-6 7 -18 1 -12 -7 -22 -7 -29 0 -5 5 -12 6 -16 3z"/>
<path d="M897 959 c-10 -6 -33 -8 -51 -5 l-33 6 -17 -60 c-10 -33 -19 -91 -22
-128 -7 -95 6 -107 127 -126 52 -8 121 -17 154 -21 l61 -6 -2 46 c-2 42 -12
60 -95 176 -52 70 -96 128 -99 128 -3 0 -13 -4 -23 -10z m98 -124 c71 -95 85
-121 85 -161 0 -21 -4 -24 -37 -24 -21 0 -71 5 -112 10 -134 18 -163 62 -125
191 21 71 25 75 78 74 44 0 44 0 111 -90z"/>
<path d="M1928 926 c-6 -31 10 -47 39 -40 15 4 25 -1 33 -17 12 -22 13 -22 26
-4 21 28 18 33 -23 41 -21 3 -45 15 -54 27 -16 19 -16 19 -21 -7z"/>
<path d="M2505 854 c-27 -13 -44 -24 -38 -24 21 0 93 32 93 41 0 5 -1 9 -2 8
-2 0 -25 -11 -53 -25z"/>
<path d="M1825 861 c-11 -4 -65 -16 -121 -26 -82 -14 -102 -21 -110 -39 -5
-11 -20 -23 -34 -26 -22 -5 -28 -17 -47 -90 -17 -70 -19 -87 -8 -98 10 -11 19
-10 51 6 102 51 270 89 347 79 53 -7 67 8 67 75 l0 53 -42 13 -42 13 -40 -42
c-40 -41 -36 -43 14 -7 37 26 84 12 88 -27 5 -41 -19 -55 -95 -55 -35 0 -79
-6 -98 -14 -18 -8 -35 -12 -38 -10 -2 2 -41 -9 -87 -26 -95 -34 -113 -30 -100
23 17 65 23 76 40 82 10 3 29 17 43 30 22 23 88 43 158 48 10 1 19 4 19 7 0 3
12 6 28 7 15 1 22 -1 15 -3 -7 -3 -10 -11 -7 -19 3 -7 -3 -18 -14 -24 -11 -6
-22 -18 -26 -27 -4 -9 9 -4 32 15 59 46 67 58 52 76 -14 17 -16 17 -45 6z"/>
<path d="M2530 838 c-25 -11 -62 -29 -84 -38 -32 -15 -42 -28 -63 -80 -37 -92
-19 -94 66 -8 65 64 139 149 129 147 -1 0 -23 -10 -48 -21z"/>
<path d="M1201 820 c-1 -19 -5 -51 -10 -72 -7 -28 -5 -40 7 -52 13 -13 14 -22
5 -45 -14 -39 -3 -55 35 -46 l31 6 -14 37 c-8 20 -24 75 -34 122 -14 61 -20
75 -20 50z"/>
<path d="M2046 835 c-8 -21 37 -79 109 -140 l54 -46 32 16 c21 11 46 15 70 12
l37 -5 21 58 c30 82 27 86 -73 82 -76 -4 -113 2 -222 34 -15 4 -23 0 -28 -11z
m110 -35 c23 -5 74 -11 114 -12 80 -2 97 -13 79 -50 -8 -19 -23 -27 -62 -35
-29 -6 -59 -13 -67 -17 -10 -4 -36 14 -77 52 -61 57 -81 91 -46 78 9 -4 36
-11 59 -16z"/>
<path d="M1997 803 c-15 -14 -6 -108 12 -129 20 -25 169 -70 183 -56 8 8 -166
192 -182 192 -4 0 -10 -3 -13 -7z m86 -95 l60 -61 -34 7 c-19 3 -35 11 -37 16
-2 6 -8 10 -14 10 -18 0 -48 42 -48 67 0 12 3 23 7 23 3 0 33 -28 66 -62z"/>
<path d="M428 752 c-4 -15 -2 -22 7 -22 8 0 17 -5 20 -11 4 -6 0 -9 -10 -7
-10 2 -20 -3 -22 -10 -4 -9 2 -11 21 -6 15 3 32 2 39 -3 16 -12 47 -11 47 2 1
6 -7 11 -17 13 -32 5 -65 26 -73 46 -6 19 -7 19 -12 -2z"/>
<path d="M1490 717 c-13 -23 -38 -64 -57 -90 -34 -49 -36 -67 -5 -67 26 1 52
25 52 48 0 11 9 49 20 83 10 35 18 64 16 66 -1 2 -13 -16 -26 -40z"/>
<path d="M567 666 c-5 -13 19 -35 128 -121 40 -31 33 -21 -35 48 -46 48 -85
87 -86 87 -1 0 -4 -6 -7 -14z"/>
<path d="M677 599 c46 -46 82 -87 80 -91 -1 -3 2 -10 7 -15 5 -4 6 -3 3 3 -10
17 67 12 87 -5 9 -8 16 -24 16 -36 0 -17 11 -26 47 -41 27 -11 52 -21 56 -23
4 -1 -24 29 -62 68 -39 39 -84 91 -101 116 -18 27 -39 45 -50 45 -10 0 -25 8
-32 18 -7 10 -27 21 -44 25 -18 3 -45 9 -60 13 -25 5 -18 -5 53 -77z"/>
<path d="M790 640 c0 -16 52 -83 114 -147 55 -57 97 -71 175 -58 32 5 41 11
41 27 0 10 5 29 11 40 8 15 8 31 0 59 -10 35 -15 38 -54 43 -140 18 -272 38
-279 42 -4 3 -8 0 -8 -6z m195 -45 c125 -18 145 -37 110 -105 -14 -28 -20 -30
-69 -30 -52 0 -55 1 -114 61 -35 36 -58 67 -55 75 6 17 4 17 128 -1z"/>
<path d="M1745 635 c-33 -7 -98 -28 -143 -46 -76 -30 -83 -34 -80 -58 3 -29
51 -52 255 -121 90 -31 113 -35 117 -24 3 8 14 14 25 14 23 0 26 8 41 123 8
66 8 81 -5 93 -8 9 -15 20 -15 25 0 13 -125 10 -195 -6z m185 -35 c23 -30 8
-135 -23 -168 -28 -31 -64 -26 -212 29 -160 60 -168 72 -77 111 135 59 279 72
312 28z"/>
<path d="M2005 614 c-16 -12 -23 -36 -32 -112 -18 -145 -6 -148 160 -43 46 28
57 40 52 56 -2 11 -5 32 -5 47 0 25 -6 29 -66 48 -78 24 -83 24 -109 4z m105
-25 c29 -9 39 -18 43 -38 7 -38 -4 -52 -73 -93 -82 -49 -94 -43 -86 38 4 35 9
70 12 78 10 25 50 31 104 15z"/>
<path d="M1130 608 c1 -7 6 -23 13 -36 13 -22 14 -22 30 -4 10 11 15 26 11 36
-7 19 -54 22 -54 4z"/>
<path d="M2253 584 c-3 -10 -13 -14 -25 -11 -14 4 -18 2 -14 -10 3 -8 6 -20 6
-26 0 -7 5 -4 11 6 9 15 13 16 26 5 9 -7 28 -11 43 -10 16 2 31 -1 34 -6 7
-12 46 -4 46 9 0 5 -10 10 -22 10 -13 1 -27 2 -33 4 -5 1 -15 3 -21 3 -7 1
-14 11 -17 22 -6 24 -25 26 -34 4z"/>
<path d="M1196 528 c-9 -12 -16 -32 -16 -45 0 -12 -5 -25 -10 -28 -8 -5 -7
-11 1 -21 6 -8 8 -14 4 -14 -4 0 -2 -7 5 -15 7 -8 9 -15 5 -15 -4 0 7 -14 24
-32 17 -17 31 -36 31 -40 0 -10 62 -2 102 14 15 6 25 14 23 19 -3 4 -20 2 -37
-5 -54 -23 -128 12 -128 61 0 30 13 29 45 -3 22 -22 27 -23 40 -11 11 11 24
13 50 7 47 -11 75 -2 75 22 0 15 -3 18 -12 11 -7 -6 -35 -7 -62 -4 -42 5 -52
11 -66 36 -9 17 -26 31 -38 33 -24 4 -29 21 -10 40 9 9 9 12 1 12 -7 0 -19
-10 -27 -22z m42 -65 c-5 -26 -38 -29 -38 -4 0 15 6 21 21 21 14 0 19 -5 17
-17z"/>
<path d="M1447 501 c6 -25 22 -27 49 -6 14 11 15 14 4 15 -8 0 -25 3 -37 6
-18 5 -21 3 -16 -15z"/>
<path d="M1416 460 c3 -25 8 -47 10 -49 9 -9 3 65 -6 79 -8 11 -9 2 -4 -30z"/>
<path d="M1486 471 c-12 -5 -24 -25 -31 -52 l-11 -46 39 -28 c28 -20 42 -24
50 -16 16 16 44 14 78 -6 26 -15 38 -16 126 -5 163 21 179 31 89 57 -30 9
-107 36 -172 60 -120 46 -135 49 -168 36z m109 -37 c22 -8 74 -27 115 -42 41
-15 67 -28 57 -30 -9 -2 -15 -8 -12 -13 10 -16 -114 -10 -146 7 -17 9 -45 13
-63 11 -18 -2 -41 2 -51 9 -16 12 -16 17 -5 44 14 35 41 38 105 14z"/>
<path d="M1047 422 c-38 -2 -65 -7 -62 -12 3 -5 20 -7 37 -3 24 5 34 1 48 -17
12 -16 23 -21 38 -15 22 6 28 22 14 40 -4 6 -37 9 -75 7z"/>
<path d="M1080 351 c0 -7 80 -41 97 -41 2 0 -4 11 -14 25 -13 17 -28 24 -50
25 -18 0 -33 -4 -33 -9z"/>
<path d="M1419 333 c-8 -9 -26 -24 -42 -33 l-27 -17 72 -6 c69 -6 87 -1 88 25
0 5 -66 48 -74 48 -2 0 -10 -7 -17 -17z"/>
<path d="M1922 339 c5 -17 48 -25 48 -10 0 6 -4 11 -9 11 -5 0 -17 3 -27 7
-12 4 -15 2 -12 -8z"/>
<path d="M1230 271 c0 -6 7 -8 15 -5 8 4 15 2 15 -3 0 -6 17 -10 38 -11 44 -1
26 13 -30 23 -25 5 -38 3 -38 -4z"/>
</g>
</svg>
